<svg width="413" height="351" viewBox="0 0 413 351" fill="none" xmlns="http://www.w3.org/2000/svg">
<path d="M278.198 203.715C286.08 203.715 292.712 207.574 298.444 215.4C304.14 223.153 307.043 232.744 307.043 244.062C307.043 255.434 304.177 265.025 298.444 272.778C292.712 280.531 285.988 284.426 278.198 284.426C269.912 284.426 262.783 280.568 257.051 272.778C251.411 265.025 248.508 255.434 248.508 244.062C248.508 232.689 251.319 223.135 257.051 215.4C262.783 207.555 269.949 203.715 278.198 203.715ZM379.596 98.7159C401.68 122.655 412.832 151.702 412.832 185.765C412.832 207.867 410.223 227.765 405.208 245.458C400.1 263.059 393.651 277.481 385.953 288.505C378.059 299.747 368.341 309.59 357.2 317.625C345.772 326.095 335.245 332.14 325.746 336.035C316.247 339.93 305.316 342.943 292.951 345.037C280.733 347.187 271.492 348.344 265.08 348.675C258.907 348.951 252.182 349.079 244.925 349.079C243.308 349.079 237.852 349.263 228.776 349.52C219.92 349.888 212.314 350.053 206.398 350.053C200.482 350.053 192.875 349.869 184.02 349.52C178.638 349.331 173.255 349.184 167.87 349.079C160.613 349.079 153.834 348.987 147.697 348.675C141.267 348.363 132.044 347.205 119.881 345.037C108.626 343.315 97.6089 340.294 87.0493 336.035C77.5507 332.176 67.0416 326.095 55.669 317.625C44.5365 309.561 34.8041 299.724 26.8607 288.505C19.1626 277.481 12.6771 263.059 7.60625 245.458C2.60891 227.765 0 207.867 0 185.765C0 151.702 11.1154 122.655 33.2544 98.7159C30.8108 97.5217 30.6822 85.5979 32.8686 62.8526C34.8344 40.089 39.6664 19.1259 47.5115 0C75.1255 2.93961 109.096 18.5196 149.792 46.648C163.534 43.0654 182.348 41.2281 206.343 41.2281C231.513 41.2281 250.327 43.0654 262.912 46.648C281.45 34.1363 299.198 23.8844 316.119 16.0944C333.316 8.39627 345.68 3.83987 353.47 2.66403L365.119 0C373 19.1259 377.832 40.1441 379.817 62.8526C382.095 85.5795 381.966 97.5217 379.541 98.7159H379.596ZM207.39 329.31C257.051 329.31 294.494 323.358 319.922 311.434C345.276 299.473 358.174 274.872 358.174 237.796C358.174 216.301 350.071 198.295 333.885 183.928C325.795 176.288 315.576 171.285 304.581 169.579C293.649 167.778 276.765 167.778 253.964 169.579C231.256 171.416 215.713 172.243 207.353 172.243C195.98 172.243 183.634 171.637 168.311 170.443C156.356 169.517 144.388 168.77 132.411 168.201C122.896 168.035 113.398 169.097 104.154 171.361C93.9207 173.805 85.6347 177.92 78.9287 183.873C63.4957 197.652 55.669 215.566 55.669 237.741C55.669 274.836 68.2358 299.418 93.3328 311.342C118.411 323.339 155.744 329.255 205.424 329.255L207.39 329.31ZM135.571 203.715C143.361 203.715 150.067 207.574 155.744 215.4C161.44 223.153 164.324 232.744 164.324 244.062C164.324 255.434 161.477 265.025 155.744 272.778C150.067 280.531 143.306 284.426 135.571 284.426C127.212 284.426 120.12 280.568 114.388 272.778C108.711 265.025 105.808 255.434 105.808 244.062C105.808 232.689 108.656 223.135 114.388 215.4C120.12 207.555 127.23 203.715 135.571 203.715V203.715Z" fill="white"/>
</svg>
