<svg width="413" height="413" viewBox="0 0 413 413" fill="none" xmlns="http://www.w3.org/2000/svg">
<path d="M0 335.562V77.4375C0 56.0705 7.5645 37.8225 22.6935 22.6935C37.8225 7.5645 56.0705 0 77.4375 0H335.562C356.93 0 375.178 7.5645 390.307 22.6935C405.435 37.8225 413 56.0705 413 77.4375V335.562C413 356.93 405.435 375.178 390.307 390.307C375.178 405.435 356.93 413 335.562 413H77.4375C56.0705 413 37.8225 405.435 22.6935 390.307C7.5645 375.178 0 356.93 0 335.562ZM68.8333 335.562C68.8333 337.857 69.6937 339.865 71.4146 341.585C73.1354 343.306 75.1431 344.167 77.4375 344.167H129.062C131.357 344.167 133.365 343.342 135.085 341.693C136.806 340.044 137.667 338 137.667 335.562V163.479C137.667 161.185 136.806 159.177 135.085 157.456C133.365 155.735 131.357 154.875 129.062 154.875H77.4375C75.1431 154.875 73.1354 155.735 71.4146 157.456C69.6937 159.177 68.8333 161.185 68.8333 163.479V335.562ZM68.8333 102.174C68.8333 111.352 72.0599 119.204 78.513 125.728C84.9661 132.253 92.7816 135.516 101.959 135.516C111.567 135.516 119.455 132.217 125.621 125.621C132.074 119.168 135.301 111.352 135.301 102.174C135.301 92.9967 132.038 85.1454 125.513 78.6206C118.988 72.0957 111.137 68.8333 101.959 68.8333C92.7816 68.8333 84.9661 72.0957 78.513 78.6206C72.0599 85.1454 68.8333 92.9967 68.8333 102.174ZM154.875 335.562C154.875 337.857 156.237 339.865 158.962 341.585C161.687 343.306 164.411 344.167 167.136 344.167H216.18C218.187 344.167 219.944 343.306 221.45 341.585C222.955 339.865 223.708 337.857 223.708 335.562V241.777C223.708 216.682 233.962 204.134 254.468 204.134C262.929 204.134 268.522 205.998 271.246 209.727C273.971 213.455 275.333 220.195 275.333 229.946V335.562C275.333 337.857 276.409 339.865 278.56 341.585C280.711 343.306 283.077 344.167 285.658 344.167H335.562C337.857 344.167 339.865 343.342 341.585 341.693C343.306 340.044 344.167 338 344.167 335.562V218.761C344.167 196.247 337.678 179.003 324.7 167.028C311.722 155.054 293.474 149.067 269.956 149.067C253.751 149.067 239.626 153.154 227.58 161.328C225.142 162.762 223.852 163.838 223.708 164.555C223.708 158.102 220.625 154.875 214.459 154.875H167.136C164.268 154.875 161.507 155.592 158.854 157.026C156.201 158.46 154.875 160.253 154.875 162.404V335.562Z" fill="white"/>
</svg>
